<svg width="21" height="20" viewBox="0 0 21 20" fill="none" xmlns="http://www.w3.org/2000/svg">
<g clip-path="url(#clip0_7680_35992)">
<path d="M2.26121 4.33398C1.61634 5.26997 1.12626 6.32094 0.829102 7.45052H5.37791L2.26121 4.33398Z" fill="#29337A"/>
<path d="M7.69937 0.400391C6.5472 0.735934 5.48015 1.27136 4.54053 1.96972L7.69937 5.12856V0.400391Z" fill="#29337A"/>
<path d="M4.77563 18.1969C5.65699 18.8136 6.64166 19.2911 7.69955 19.5991V15.2734L4.77563 18.1969Z" fill="#29337A"/>
<path d="M0.943848 12.9531C1.27449 14.0241 1.78116 15.0178 2.42869 15.9017L5.37722 12.9531H0.943848Z" fill="#29337A"/>
<path d="M2.42608 4.10156C2.37017 4.17799 2.31507 4.25551 2.26107 4.33383L5.37777 7.45036H0.828965C0.755244 7.73093 0.695077 8.01691 0.645508 8.30681H6.63166L2.42608 4.10156Z" fill="white"/>
<path d="M4.54346 18.0327C4.61954 18.0894 4.69774 18.1433 4.77539 18.1977L7.6993 15.2741V19.5998C7.98021 19.6819 8.26551 19.7528 8.55574 19.8098V14.0205L4.54346 18.0327Z" fill="white"/>
<path d="M0.72168 12.0967C0.783747 12.3869 0.857003 12.6727 0.943686 12.9531H5.3771L2.42857 15.9017C2.74925 16.3398 3.10485 16.751 3.49123 17.1312L8.52568 12.0967H0.72168Z" fill="white"/>
<path d="M7.69941 0.400445V5.12862L4.54053 1.96994C4.10504 2.29379 3.69798 2.65332 3.3208 3.04252L8.55569 8.27741V0.19043C8.26562 0.247768 7.98032 0.318829 7.69941 0.400445Z" fill="white"/>
<path d="M7.69945 12.9229L7.66943 12.953H7.69945V12.9229Z" fill="#D32030"/>
<path d="M8.52588 12.0966H8.55586V12.0664L8.52588 12.0966Z" fill="#D32030"/>
<path d="M12.3743 8.30664H12.3455V8.33569L12.3743 8.30664Z" fill="#D32030"/>
<path d="M7.72898 7.45058L7.69946 7.4209V7.45058H7.72898Z" fill="#D32030"/>
<path d="M8.55591 8.27734V8.3069H8.58546L8.55591 8.27734Z" fill="#D32030"/>
<path d="M13.2017 17.3858V19.6275C14.2733 19.3275 15.2725 18.8546 16.1662 18.2385L13.7373 15.8096C13.5432 16.4915 13.4721 16.8441 13.2017 17.3858Z" fill="#252F6C"/>
<path d="M13.75 4.57968L16.4016 1.92814C15.449 1.23054 14.3684 0.698915 13.2017 0.37207V2.67481C13.5135 3.29928 13.5397 3.77378 13.75 4.57968Z" fill="#252F6C"/>
<path d="M18.5305 15.9589C19.1982 15.0607 19.7187 14.0467 20.0567 12.9521H15.5237L18.5305 15.9589Z" fill="#252F6C"/>
<path d="M20.1711 7.45019C19.8676 6.29676 19.3628 5.22607 18.6976 4.27539L15.5225 7.45019H20.1711Z" fill="#252F6C"/>
<path d="M14.3337 12.266L15.0209 12.9531L18.3102 16.2424C18.3849 16.1489 18.4591 16.0558 18.5305 15.9599L15.5237 12.9531H20.0567C20.1431 12.6728 20.2164 12.3869 20.2783 12.0967H14.398C14.3884 12.2181 14.3453 12.1453 14.3337 12.266Z" fill="#E7E7E7"/>
<path d="M13.6461 5.08173L16.6274 2.10018C16.5527 2.04225 16.4778 1.98461 16.4015 1.92871L13.75 4.58025C13.7775 4.68509 13.6206 4.97435 13.6461 5.08173Z" fill="#E7E7E7"/>
<path d="M13.2017 2.49108V0.372438C12.9211 0.293819 12.6355 0.227192 12.3452 0.172852V1.20629C12.6639 1.55176 12.9495 1.98568 13.2017 2.49108Z" fill="#E7E7E7"/>
<path d="M14.2662 8.30657H20.3545C20.3051 8.01667 20.2448 7.73087 20.1711 7.45013H15.5225L18.6976 4.27533C18.3854 3.82941 18.0385 3.41006 17.6596 3.02148L14.0833 6.59749C14.1796 7.24615 14.2227 7.62286 14.2662 8.30657Z" fill="#E7E7E7"/>
<path d="M13.5928 15.6646L16.1663 18.2384C16.5944 17.9436 16.9975 17.6155 17.3736 17.2593L13.9885 13.874C13.8804 14.5001 13.7522 15.1048 13.5928 15.6646Z" fill="#E7E7E7"/>
<path d="M12.3455 18.6751V19.827C12.6357 19.773 12.9212 19.706 13.2019 19.6274V17.3857C12.9496 17.8914 12.6639 18.3301 12.3455 18.6751Z" fill="#E7E7E7"/>
<path d="M14.0832 6.59741L17.6592 3.02141C17.3373 2.69077 16.9921 2.38305 16.6271 2.09961L13.8171 4.90999C13.942 5.43199 13.9987 6.02948 14.0832 6.59741Z" fill="#D71F28"/>
<path d="M10.001 0.012329C10.1676 0.00426448 10.3337 0 10.4999 0C10.3327 0 10.1663 0.00426448 10.001 0.012329Z" fill="#D32030"/>
<path d="M10.4999 19.9999C10.3336 19.9999 10.1675 19.9954 10.0012 19.9873C10.1666 19.9957 10.3327 19.9999 10.4999 19.9999Z" fill="#D32030"/>
<path d="M10.5 19.9997C11.1309 19.9997 11.747 19.9386 12.3455 19.8266V18.6748C11.8202 19.2442 11.2057 19.9997 10.5 19.9997Z" fill="#D32030"/>
<path d="M20.3543 8.30664H14.3452C14.4247 9.56082 14.4151 10.8505 14.3164 12.0961H20.2782C20.4226 11.4198 20.4999 10.7191 20.4999 10.0001C20.4999 9.42246 20.4484 8.85752 20.3543 8.30664Z" fill="#D71F28"/>
<path d="M14.3337 12.2656C14.2782 12.8565 14.0846 13.3169 13.9883 13.8743L17.3734 17.2594C17.7083 16.942 18.0214 16.6025 18.31 16.2421L15.0209 12.9526L14.3337 12.2656Z" fill="#D71F28"/>
<path d="M12.3453 1.28036V0.172733C11.747 0.0610961 11.1309 0 10.4998 0C11.2054 0 11.8199 0.711155 12.3453 1.28036Z" fill="#D32030"/>
<path d="M13.2017 17.8176C13.4721 17.2757 13.7041 16.6519 13.8983 15.9701L13.2017 15.2734V17.8176Z" fill="#29337A"/>
<path d="M13.985 4.34466C13.7743 3.53876 13.5135 2.80611 13.2017 2.18164V5.12764L13.985 4.34466Z" fill="#29337A"/>
<path d="M14.5279 12.46C14.5392 12.3394 14.5495 12.2183 14.5593 12.0967H14.1646L14.5279 12.46Z" fill="white"/>
<path d="M13.2017 5.12842V2.18225C12.9493 1.67685 12.6639 1.24263 12.3452 0.897461V6.38243L14.0652 4.66249C14.0393 4.55512 14.0121 4.44994 13.9849 4.34511L13.2017 5.12842Z" fill="white"/>
<path d="M12.3743 8.30755H14.588C14.5446 7.62388 14.4754 6.95123 14.3792 6.30273L12.3743 8.30755Z" fill="white"/>
<path d="M12.3455 19.1032C12.6641 18.7578 12.9496 18.3238 13.2019 17.8184V15.2743L13.8985 15.9709C14.0583 15.4108 14.1924 14.8126 14.3007 14.1865L12.3455 12.2314L12.3455 19.1032Z" fill="white"/>
<path d="M12.3453 19.1029V12.2311L14.3004 14.1863C14.3966 13.6287 14.4722 13.0505 14.5276 12.4596L14.1643 12.0962H14.559C14.6577 10.8506 14.6673 9.56088 14.5878 8.30675H12.3741L14.3789 6.30193C14.2944 5.73383 14.1899 5.18434 14.065 4.66218L12.3454 6.38211V0.897146C11.82 0.327774 11.2055 0 10.4998 0C10.3336 0 10.1675 0.00426448 10.0009 0.012329C9.50903 0.0369448 9.02668 0.0974498 8.55582 0.190297V8.27723L3.32081 3.04235C2.99916 3.37426 2.69997 3.72792 2.42615 4.10167L5.77495 7.45047L6.63169 8.30692H0.645583C0.551807 8.85763 0.5 9.42256 0.5 10.0002C0.5 10.7194 0.57769 11.4199 0.721669 12.0962H8.52584L3.49134 17.1307C3.82102 17.4546 4.17201 17.7562 4.54357 18.0321L8.55569 14.02V19.8094C9.02652 19.9023 9.5092 19.9627 10.0011 19.9874C10.1673 19.9954 10.3334 20 10.4997 20C11.2055 20 11.82 19.6722 12.3453 19.1029Z" fill="#E51D35"/>
</g>
<defs>
<clipPath id="clip0_7680_35992">
<rect width="20" height="20" fill="white" transform="translate(0.5)"/>
</clipPath>
</defs>
</svg>
