<svg width="20" height="20" viewBox="0 0 20 20" fill="none" xmlns="http://www.w3.org/2000/svg">
<g clip-path="url(#clip0_7232_42899)">
<path d="M10 0.625C6.03125 0.625 2.65625 3.09375 1.28125 6.5625H18.7188C17.3438 3.09375 13.9687 0.625 10 0.625Z" fill="#3081F7"/>
<path d="M10 19.375C13.9687 19.375 17.3438 16.9062 18.7188 13.4375H1.28125C2.65625 16.9062 6.03125 19.375 10 19.375Z" fill="#308738"/>
<path d="M19.375 10C19.375 9.03125 19.2188 8.0625 18.9375 7.1875H1.0625C0.78125 8.0625 0.625 9.03125 0.625 10C0.625 10.9688 0.78125 11.9375 1.0625 12.8125H18.9375C19.2188 11.9375 19.375 10.9688 19.375 10Z" fill="#F3F3F3"/>
<path d="M18.7188 6.5625C18.75 6.65625 18.8125 6.78125 18.8437 6.875C18.875 6.96875 18.9062 7.09375 18.9375 7.1875" fill="#C94747"/>
<path d="M18.8438 6.875C18.8125 6.78125 18.75 6.65625 18.7188 6.5625H1.28125C1.25 6.65625 1.1875 6.78125 1.15625 6.875C1.125 6.96875 1.09375 7.09375 1.0625 7.1875H18.9375C18.9062 7.09375 18.875 6.96875 18.8438 6.875Z" fill="#EE162E"/>
<path d="M1.15625 13.125C1.1875 13.2188 1.25 13.3438 1.28125 13.4375H18.7188C18.75 13.3438 18.8125 13.2188 18.8438 13.125C18.875 13.0312 18.9062 12.9062 18.9375 12.8125H1.0625C1.09375 12.9062 1.125 13.0312 1.15625 13.125Z" fill="#EE162E"/>
<path d="M6.375 5.40625C5.625 5.40625 5.03125 4.8125 5.03125 4.0625C5.03125 3.3125 5.625 2.71875 6.375 2.71875C6.5625 2.71875 6.71875 2.75 6.875 2.8125C6.625 2.625 6.28125 2.5 5.9375 2.5C5.0625 2.5 4.375 3.1875 4.375 4.0625C4.375 4.9375 5.0625 5.625 5.9375 5.625C6.28125 5.625 6.625 5.5 6.875 5.3125C6.71875 5.375 6.5625 5.40625 6.375 5.40625Z" fill="white"/>
<path d="M7.71875 4.75L7.84375 5.09375H8.1875L7.90625 5.28125L8 5.625L7.71875 5.40625L7.4375 5.625L7.5625 5.28125L7.28125 5.09375H7.625L7.71875 4.75Z" fill="white"/>
<path d="M9.0625 4.75L9.15625 5.09375H9.53125L9.25 5.28125L9.34375 5.625L9.0625 5.40625L8.78125 5.625L8.875 5.28125L8.59375 5.09375H8.9375L9.0625 4.75Z" fill="white"/>
<path d="M10.4062 4.75L10.5 5.09375H10.8438L10.5625 5.28125L10.6875 5.625L10.4062 5.40625L10.0938 5.625L10.2188 5.28125L9.9375 5.09375H10.2813L10.4062 4.75Z" fill="white"/>
<path d="M11.7188 4.75L11.8438 5.09375H12.1875L11.9062 5.28125L12 5.625L11.7188 5.40625L11.4375 5.625L11.5313 5.28125L11.25 5.09375H11.625L11.7188 4.75Z" fill="white"/>
<path d="M13.0625 4.75L13.1562 5.09375H13.5312L13.2188 5.28125L13.3438 5.625L13.0625 5.40625L12.7813 5.625L12.875 5.28125L12.5938 5.09375H12.9375L13.0625 4.75Z" fill="white"/>
<path d="M9.0625 3.625L9.15625 3.96875H9.53125L9.25 4.15625L9.34375 4.5L9.0625 4.28125L8.78125 4.5L8.875 4.15625L8.59375 3.96875H8.9375L9.0625 3.625Z" fill="white"/>
<path d="M10.4062 3.625L10.5 3.96875H10.8438L10.5625 4.15625L10.6875 4.5L10.4062 4.28125L10.0938 4.5L10.2188 4.15625L9.9375 3.96875H10.2813L10.4062 3.625Z" fill="white"/>
<path d="M11.7188 3.625L11.8438 3.96875H12.1875L11.9062 4.15625L12 4.5L11.7188 4.28125L11.4375 4.5L11.5313 4.15625L11.25 3.96875H11.625L11.7188 3.625Z" fill="white"/>
<path d="M13.0625 3.625L13.1562 3.96875H13.5312L13.2188 4.15625L13.3438 4.5L13.0625 4.28125L12.7813 4.5L12.875 4.15625L12.5938 3.96875H12.9375L13.0625 3.625Z" fill="white"/>
<path d="M10.4062 2.5L10.5 2.84375H10.8438L10.5625 3.03125L10.6875 3.375L10.4062 3.15625L10.0938 3.375L10.2188 3.03125L9.9375 2.84375H10.2813L10.4062 2.5Z" fill="white"/>
<path d="M11.7188 2.5L11.8438 2.84375H12.1875L11.9062 3.03125L12 3.375L11.7188 3.15625L11.4375 3.375L11.5313 3.03125L11.25 2.84375H11.625L11.7188 2.5Z" fill="white"/>
<path d="M13.0625 2.5L13.1562 2.84375H13.5312L13.2188 3.03125L13.3438 3.375L13.0625 3.15625L12.7813 3.375L12.875 3.03125L12.5938 2.84375H12.9375L13.0625 2.5Z" fill="white"/>
</g>
<defs>
<clipPath id="clip0_7232_42899">
<rect width="20" height="20" fill="white"/>
</clipPath>
</defs>
</svg>
